Coordinates
version=1
nRows=17
nColumns=40
inDegrees=yes

Units are S.I. units (second, meters, Newtons, ...)
Angles are in degrees.

endheader
time	pelvis_tilt	pelvis_list	pelvis_rotation	pelvis_tx	pelvis_ty	pelvis_tz	hip_flexion_r	hip_adduction_r	hip_rotation_r	knee_angle_r	knee_angle_r_beta	ankle_angle_r	subtalar_angle_r	mtp_angle_r	hip_flexion_l	hip_adduction_l	hip_rotation_l	knee_angle_l	knee_angle_l_beta	ankle_angle_l	subtalar_angle_l	mtp_angle_l	lumbar_extension	lumbar_bending	lumbar_rotation	arm_flex_r	arm_add_r	arm_rot_r	elbow_flex_r	pro_sup_r	wrist_flex_r	wrist_dev_r	arm_flex_l	arm_add_l	arm_rot_l	elbow_flex_l	pro_sup_l	wrist_flex_l	wrist_dev_l
     40.37342857	     -3.79509373	     -4.49441577	     -4.93446192	      1.10407790	      0.92842550	      0.47604979	     24.64655952	      0.66316990	    -11.51544956	     14.07357850	     14.07357850	      2.11320324	      4.51637210	      3.52398340	      4.56407618	     -5.38175251	    -11.34872733	     17.13075283	     17.13075283	     16.55234181	    -12.20192824	     -2.49275870	    -12.03265307	      4.92071018	      0.10935663	      1.79165340	    -14.08243162	    -14.43939772	     29.48674910	     46.93940701	      0.00000000	      0.00000000	      5.24218617	    -14.40417200	     -1.68833114	     52.46113853	     46.09572341	      0.00000000	      0.00000000
     40.38685714	     -3.67166107	     -4.46282242	     -4.86592984	      1.10597861	      0.92765673	      0.47778769	     24.26006454	      0.61747644	    -11.13963133	     15.45153017	     15.45153017	      2.31300904	      3.78344144	      2.57243675	      3.76684874	     -5.41551518	    -11.49107587	     16.87434012	     16.87434012	     16.98233715	    -11.76997207	     -2.40588774	    -11.82867422	      5.01381184	     -0.06200377	      1.82922863	    -13.95726075	    -14.36085213	     29.93720418	     46.90378955	      0.00000000	      0.00000000	      4.94012231	    -14.26607524	     -1.63200751	     52.16771538	     46.09592309	      0.00000000	      0.00000000
     40.40028571	     -3.48880478	     -4.46560721	     -4.73168509	      1.10809401	      0.92687211	      0.47957613	     23.73785294	      0.61441517	    -10.72568473	     16.74025409	     16.74025409	      2.63288279	      3.11373386	      1.74895717	      2.95742987	     -5.49310358	    -11.53835833	     16.73307705	     16.73307705	     17.48693101	    -11.41200324	     -2.29251579	    -11.70616237	      5.17691963	     -0.19964761	      1.89628873	    -13.88277738	    -14.29330654	     30.38052019	     46.87259718	      0.00000000	      0.00000000	      4.70210803	    -14.15222722	     -1.61116062	     51.91999477	     46.09706187	      0.00000000	      0.00000000
     40.41371429	     -3.32333516	     -4.44658001	     -4.56354621	      1.11032991	      0.92600523	      0.48145505	     23.22026162	      0.62855458	    -10.24258191	     17.91887991	     17.91887991	      3.00096983	      2.31093702	      0.88716422	      2.21272368	     -5.57620285	    -11.61324095	     16.68919350	     16.68919350	     18.08551595	    -11.00248358	     -2.01877492	    -11.53012422	      5.32582345	     -0.34847319	      1.91892816	    -13.79183859	    -14.18962079	     30.96807196	     46.83109424	      0.00000000	      0.00000000	      4.43825701	    -14.05197072	     -1.62441008	     51.62472943	     46.10155092	      0.00000000	      0.00000000
     40.42714286	     -3.13329293	     -4.56719638	     -4.34044457	      1.11260585	      0.92524798	      0.48356794	     22.54234253	      0.87821961	     -9.61781381	     18.66485315	     18.66485315	      2.85382011	      1.16742009	     -1.22595549	      1.68585918	     -5.93692290	    -11.78116493	     17.20775768	     17.20775768	     19.56413220	     -9.89537278	     -0.00874624	    -11.43513013	      5.61804476	     -0.22897209	      1.28074691	    -13.94387754	    -13.41936032	     32.95738071	     46.64253673	      0.00000000	      0.00000000	      4.38760803	    -13.75760727	     -1.87568253	     51.10576504	     46.16392992	      0.00000000	      0.00000000
     40.44057143	     -2.95569230	     -4.60834895	     -4.11061303	      1.11482499	      0.92452889	      0.48562202	     22.05046597	      0.98096588	     -9.24917645	     19.60150757	     19.60150757	      3.47903526	      0.60157346	     -1.66581506	      1.13450150	     -6.13117400	    -11.62006179	     17.50816478	     17.50816478	     19.99788890	     -9.87982070	      0.22418978	    -11.29164665	      5.83329078	     -0.37810761	      1.46315876	    -13.90529123	    -13.24218453	     33.27579276	     46.60841023	      0.00000000	      0.00000000	      4.13897775	    -13.70321907	     -1.81777823	     50.80811095	     46.16369915	      0.00000000	      0.00000000
     40.45400000	     -2.71557752	     -4.71887120	     -3.86621850	      1.11696147	      0.92412459	      0.48776733	     21.45212069	      1.16016525	     -9.04507145	     20.29221820	     20.29221820	      4.12254233	      0.20571272	     -2.01192400	      0.65200908	     -6.43799281	    -11.40335575	     18.03944299	     18.03944299	     20.26878928	    -10.02792496	      0.28577558	    -11.29404927	      6.12013543	     -0.35256724	      1.67827923	    -13.92081341	    -13.18338530	     33.47973380	     46.59453334	      0.00000000	      0.00000000	      3.93842427	    -13.59495024	     -1.79721675	     50.62208489	     46.16122380	      0.00000000	      0.00000000
     40.46742857	     -2.56148056	     -4.80154652	     -3.62617185	      1.11886973	      0.92372053	      0.49006053	     21.03270579	      1.36194390	     -8.73036305	     20.94520153	     20.94520153	      4.76686126	     -0.43544739	     -2.35966669	      0.53297323	     -6.79135825	    -11.12263372	     19.04626208	     19.04626208	     20.58528828	    -10.28828807	      0.42497377	    -11.19898300	      6.34214717	     -0.40298192	      1.95751273	    -13.91389440	    -13.08014424	     33.83484759	     46.57046303	      0.00000000	      0.00000000	      3.76496814	    -13.54324357	     -1.82782978	     50.33674020	     46.16412936	      0.00000000	      0.00000000
     40.48085714	     -2.28458417	     -4.81799303	     -3.40439615	      1.12077602	      0.92385947	      0.49240096	     20.42148328	      1.48309660	     -8.55043025	     21.37239628	     21.37239628	      5.41198398	     -0.78166906	     -2.64689314	      0.35503772	     -7.08875154	    -10.89116903	     20.15490373	     20.15490373	     20.62828608	    -10.64631520	      0.43163336	    -11.26893440	      6.50753131	     -0.29038832	      2.18142054	    -13.90332900	    -13.02364208	     34.03069268	     46.55834115	      0.00000000	      0.00000000	      3.50437267	    -13.39858561	     -1.82581385	     50.12274328	     46.16128338	      0.00000000	      0.00000000
     40.49428571	     -2.36961357	     -4.97445247	     -3.09519814	      1.12194852	      0.92350516	      0.49485364	     20.30145826	      1.80599673	     -8.33063570	     21.81166959	     21.81166959	      5.88198031	     -1.73113026	     -2.94770903	      1.25667726	     -7.71326422	    -10.40356598	     22.44445226	     22.44445226	     20.81490111	    -11.27713991	      0.61663482	    -11.00035734	      6.83012756	     -0.36919433	      2.51879565	    -13.94045362	    -12.76734053	     34.66201600	     46.50967198	      0.00000000	      0.00000000	      3.43580509	    -13.37433540	     -2.04777336	     49.65825231	     46.18531140	      0.00000000	      0.00000000
     40.50771429	     -2.24604406	     -5.04713985	     -2.81082154	      1.12313655	      0.92373308	      0.49734455	     19.86689158	      2.00448963	     -8.30364294	     22.05686362	     22.05686362	      6.37101395	     -2.18505697	     -3.23443401	      2.00387025	     -8.24147912	     -9.92967980	     24.82434987	     24.82434987	     20.64943280	    -11.98944518	      0.56104328	    -10.99891373	      7.03468614	     -0.27843643	      2.81792987	    -14.01378136	    -12.51046959	     35.14783340	     46.46769611	      0.00000000	      0.00000000	      3.35834365	    -13.26094347	     -2.26271331	     49.32260376	     46.20940754	      0.00000000	      0.00000000
     40.52114286	     -2.05848951	     -5.12176605	     -2.50019750	      1.12409363	      0.92423659	      0.49982221	     19.31651936	      2.17823214	     -8.44133769	     22.18476272	     22.18476272	      6.86589531	     -2.39784302	     -3.46148519	      2.91865139	     -8.79957850	     -9.37410353	     27.56040900	     27.56040900	     20.15400393	    -12.85209206	      0.21664261	    -11.11560942	      7.24661580	     -0.13641477	      3.23264033	    -14.09342742	    -12.36912046	     35.49307963	     46.44353838	      0.00000000	      0.00000000	      3.32943950	    -13.20869759	     -2.39272166	     49.13509384	     46.22388537	      0.00000000	      0.00000000
     40.53457143	     -2.00874501	     -5.21045358	     -2.14453804	      1.12472422	      0.92461846	      0.50234395	     18.87761294	      2.37368418	     -8.66141809	     22.21167158	     22.21167158	      7.27316779	     -2.58157946	     -3.65821544	      4.33464900	     -9.43160199	     -8.67471013	     30.82796524	     30.82796524	     19.31306561	    -13.85105318	     -0.34916667	    -11.07744143	      7.39812434	     -0.05543816	      3.64583830	    -14.19480195	    -12.21134334	     35.89638288	     46.41554244	      0.00000000	      0.00000000	      3.25576368	    -13.14817458	     -2.55022278	     48.93259516	     46.24105196	      0.00000000	      0.00000000
     40.54800000	     -1.88026024	     -5.29665179	     -1.75808693	      1.12510840	      0.92519185	      0.50480266	     18.30950112	      2.55773097	     -8.94177614	     22.15033734	     22.15033734	      7.65940006	     -2.64893745	     -3.82766653	      5.86426657	    -10.06237863	     -7.89460925	     34.35012137	     34.35012137	     18.15256931	    -14.83546601	     -0.93617186	    -11.20153736	      7.55687706	      0.08058998	      4.13637220	    -14.30660538	    -12.08395700	     36.28175805	     46.39204142	      0.00000000	      0.00000000	      3.27287097	    -13.14170017	     -2.69260315	     48.81994059	     46.25745672	      0.00000000	      0.00000000
     40.56142857	     -1.87660730	     -5.34604741	     -1.35343470	      1.12521561	      0.92564402	      0.50716379	     17.83297982	      2.70386633	     -9.29642117	     21.98350058	     21.98350058	      7.94000790	     -2.69565585	     -3.98098148	      7.73858789	    -10.64315012	     -7.04916778	     38.11017122	     38.11017122	     16.61207264	    -15.84868289	     -1.62415004	    -11.14532387	      7.66964509	      0.15571650	      4.56642010	    -14.45486975	    -11.91851045	     36.75373802	     46.36143120	      0.00000000	      0.00000000	      3.21064520	    -13.11242843	     -2.86934643	     48.71155230	     46.27751289	      0.00000000	      0.00000000
     40.57485714	     -1.80914768	     -5.40889818	     -0.91330354	      1.12512588	      0.92615779	      0.50945290	     17.24535881	      2.86801953	     -9.66190686	     21.74223612	     21.74223612	      8.23493208	     -2.68635841	     -4.12686564	      9.66592670	    -11.21246868	     -6.13530736	     41.95169441	     41.95169441	     14.87098629	    -16.69295806	     -2.12905227	    -11.20732492	      7.78055555	      0.29823722	      5.04869392	    -14.63950446	    -11.76821670	     37.22091317	     46.33331880	      0.00000000	      0.00000000	      3.21757055	    -13.10618360	     -3.02903659	     48.68354435	     46.29668248	      0.00000000	      0.00000000
     40.58828571	     -1.62441623	     -5.41253323	     -0.50427389	      1.12482695	      0.92687375	      0.51168774	     16.52429039	      2.98878936	     -9.95198382	     21.47236536	     21.47236536	      8.52268813	     -2.64556048	     -4.22130151	     11.49526431	    -11.67850835	     -5.25835311	     45.70937514	     45.70937514	     13.01191788	    -17.27923715	     -2.29545622	    -11.46886803	      7.76590230	      0.54336613	      5.65650823	    -14.81695792	    -11.67832814	     37.61593511	     46.31463299	      0.00000000	      0.00000000	      3.39857785	    -13.20287727	     -3.15011055	     48.73329800	     46.31269578	      0.00000000	      0.00000000
